<svg height="512pt" viewBox="-8 0 512 512.00515" width="512pt" xmlns="http://www.w3.org/2000/svg">
  <path fill="#00abe1"
    d="m480.140625 392.339844h-5.816406c-.203125 0-.382813-.140625-.453125-.355469-1.15625-3.464844-2.570313-6.882813-4.207032-10.152344-.105468-.210937-.082031-.441406.0625-.585937l4.109376-4.109375c2.921874-2.921875 4.53125-6.808594 4.53125-10.941407 0-4.132812-1.605469-8.015624-4.527344-10.9375l-12.371094-12.371093c-2.921875-2.921875-6.808594-4.53125-10.941406-4.53125-4.132813 0-8.015625 1.609375-10.9375 4.53125l-4.113282 4.109375c-.144531.144531-.371093.171875-.582031.0625-3.273437-1.632813-6.6875-3.046875-10.15625-4.203125-.214843-.074219-.355469-.25-.355469-.453125v-5.816406c0-8.527344-6.9375-15.46875-15.46875-15.46875h-6.421874c-6.417969-4.414063-13.460938-7.710938-20.980469-9.804688l-90.738281-25.292969c-2.871094-.800781-5.914063-.570312-8.601563.558594-2.152344-2.984375-3.515625-6.816406-3.515625-10.371094v-25.125c4.257812-2.746093 8.390625-5.839843 12.386719-9.28125 17.296875-14.894531 28.171875-36.410156 30.476562-59.875 12.667969-.484375 22.824219-10.941406 22.824219-23.726562v-17.996094c0-7.996094-3.898438-15.179687-10.183594-19.515625l1.175782-4.375c.1875-.699219.269531-1.40625.253906-2.097656v-33.9375c0-4.140625-3.355469-7.5-7.5-7.5-4.140625 0-7.5 3.359375-7.5 7.5v23.460937c-31.539063-10.640625-63.730469-16.027343-95.851563-16.027343-32.121093 0-64.3125 5.386718-95.851562 16.027343v-39.132812c0-16.976563 11.53125-31.578125 28.046875-35.507813l52.554687-12.511718c8.734375-2.078126 17.980469-2.117188 26.738281-.109376l56.023438 12.847657c10.707031 2.457031 19.652344 9.511719 24.542969 19.355469 1.839843 3.710937 6.34375 5.222656 10.050781 3.382812 3.710938-1.84375 5.226562-6.34375 3.382812-10.054688-6.898437-13.886718-19.515624-23.839843-34.621093-27.304687l-56.027344-12.847656c-10.988281-2.519531-22.597656-2.472657-33.5625.140625l-52.554687 12.507812c-23.300782 5.546875-39.574219 26.148438-39.574219 50.101563v49.609375c-.007813.359375.011719.726562.058593 1.09375 0 .015625.003907.035156.007813.050781.003906.039063.007813.074219.011719.109375.007812.039062.015625.082031.019531.121094.003906.011718.003906.023437.007813.035156.046874.277344.109374.554688.183593.820312l1.144531 4.242188c-6.289062 4.335938-10.1875 11.523438-10.1875 19.515625v17.996094c0 12.785156 10.15625 23.242187 22.824219 23.726562 2.304688 23.464844 13.179688 44.980469 30.476563 59.875 4 3.441407 8.128906 6.535157 12.386718 9.285157v25.121093c0 3.554688-1.363281 7.386719-3.515624 10.371094-2.6875-1.128906-5.730469-1.359375-8.601563-.558594l-90.738281 25.292969c-26.132813 7.28125-45.96875 29.265625-50.535156 56.007812l-3.78125 22.152344c-.699219 4.085938 2.046874 7.960938 6.128906 8.65625.425781.074219.851562.109375 1.269531.109375 3.589844 0 6.761719-2.582031 7.386719-6.238281l3.78125-22.15625c3.597656-21.046875 19.210937-38.347656 39.777344-44.082031l42.902343-11.953125 41.371094 47.210937c.085937.097657.171875.195313.257813.289063.019531.023437.042968.050781.066406.074218.074218.082032.148437.164063.226562.246094.011719.015625.023438.027344.035156.042969.085938.09375.175782.183594.261719.277344.019531.019531.042969.042969.0625.066406l.222657.234375c.015624.015625.035156.03125.050781.046875.085937.09375.175781.183594.265625.273437.019531.015626.039062.035157.058594.054688.074218.074219.148437.148438.226562.222656.019531.019532.039062.039063.0625.058594.089844.089844.179688.175781.273438.261719.011718.015625.027343.027343.039062.042969.082031.070312.160156.144531.238281.21875.027344.023437.050781.046874.078125.070312.089844.085938.183594.167969.273438.25.007812.007812.011718.011719.019531.015625.085937.078125.175781.15625.265625.234375.027344.023438.050781.046875.078125.070312.085937.074219.167969.144532.253906.21875.007813.007813.019531.019532.03125.027344.09375.078125.1875.160156.285157.238282.027343.019531.054687.042968.082031.066406.078125.0625.152343.125.226562.183594.023438.019531.046875.039062.070313.058593.09375.074219.1875.148438.285156.222657.023438.019531.050781.042968.078125.0625.070313.058593.144531.113281.21875.167968.03125.027344.0625.046875.09375.074219.09375.070313.1875.140625.28125.210937.027344.015626.050781.035157.074219.054688.078125.054688.152344.109375.230468.164062.03125.023438.0625.046876.09375.070313.097657.066406.195313.136719.292969.207031.015625.011719.03125.023438.050781.035156.082032.054688.167969.113282.25.171876.035157.023437.070313.046874.105469.070312.078125.050781.152344.101562.230469.152344.027344.019531.054688.039062.082031.058594.09375.058593.1875.121093.277344.179687.042969.027344.082031.050781.121094.078125.070312.042969.136719.082031.203125.125.035156.023438.074218.046875.109375.070312.09375.058594.1875.113282.285156.171876.039063.023437.078125.046874.117187.070312.066407.039062.132813.078125.199219.117188.039063.027343.082031.050781.125.074218.09375.054688.183594.109375.277344.160156.046875.027344.089844.050782.132813.078126.0625.03125.121093.066406.183593.101562.046875.027344.097657.050781.144531.078125.070313.039063.140626.078125.214844.117187.0625.035157.125.066407.1875.101563.0625.03125.128906.066406.191406.097656.050782.027344.101563.054688.15625.082031.050782.027344.105469.054688.160157.082032.085937.042968.171875.085937.257812.128906.054688.027344.109375.054688.164063.082031.058594.027344.117187.054688.171875.082031.050781.023438.101562.046876.15625.070313.074219.039063.152343.074219.230469.109375.066406.03125.132812.0625.203124.09375.0625.027344.125.058594.1875.085938.039063.015624.078126.035156.117188.050781.066406.03125.132812.058593.199219.089843.023437.007813.046875.015626.070312.027344.128907.054688.257813.109375.390625.164063.039063.015625.078125.03125.117188.046875.066406.027344.128906.054687.195312.082031.042969.015625.085938.03125.125.050781.117188.046875.234375.089844.351563.136719.035156.011719.066406.023437.101562.039063.070313.023437.144531.050781.214844.078124.027344.011719.054687.019532.082031.03125.144532.054688.292969.105469.4375.15625.015625.003907.03125.011719.046875.015626.078125.027343.152344.054687.230469.078124.027344.011719.054688.019532.082031.03125.242188.078126.484375.15625.730469.234376.019531.007812.042969.011718.0625.019531.25.074219.496094.148437.746094.21875.023437.003906.042968.011719.066406.015625.253906.074218.511719.140625.769531.203125.011719.003906.027344.007812.039063.011719.085937.019531.171875.042968.253906.0625.011719.003906.023438.003906.035156.007812.171875.039062.34375.078125.515625.117188.007813 0 .011719.003906.015625.003906.089844.019531.175782.035156.261719.054687.011719.003907.023437.003907.039063.007813.261718.054687.523437.105468.789062.152344.015625.003906.035156.007812.054688.011718.261718.046875.519531.089844.78125.128906.019531.003907.035156.007813.050781.007813.265625.042969.535156.078125.800781.113281.011719 0 .023438.003906.035156.003906.089844.011719.175782.023438.265625.03125.007813 0 .011719 0 .015625.003907.183594.019531.363282.039062.546875.054687.003907 0 .007813.003906.011719.003906.089844.007813.183594.015626.273438.023438.007812 0 .015624.003906.027343.003906.269531.023438.542969.042969.8125.058594.019531 0 .035157.003906.050781.003906.261719.015625.523438.027344.785157.035156.027343.003907.054687.003907.078125.003907.253906.007812.511718.015625.765625.015625h.089843c.042969 0 .089844.003906.136719.003906.898438 0 1.800781-.039062 2.699219-.121094h.003906c.191406-.015625.382813-.035156.574219-.054687.566406-.058594 1.128906-.132813 1.691406-.222657.015625-.003906.03125-.007812.046875-.007812.078125-.015625.15625-.027344.234375-.039062.019531-.003907.042969-.007813.0625-.011719.074219-.011719.152344-.027344.226563-.039063.023437-.003906.046875-.011718.074218-.015625.070313-.011719.140626-.023437.210938-.039062.03125-.003907.0625-.011719.097656-.015625.0625-.015625.128906-.027344.195313-.039063.035156-.007812.066406-.015625.101562-.019531.066407-.015625.132813-.027344.199219-.042969.03125-.003906.0625-.011719.09375-.019531.070312-.015625.136719-.027344.207031-.042969.019531-.007812.042969-.011719.0625-.015625.230469-.050781.460938-.105468.691407-.164062.039062-.007813.082031-.019532.121093-.027344.054688-.015625.109375-.027344.164063-.042969.046875-.011719.09375-.023437.140625-.035156.050781-.015625.105469-.027344.15625-.042969.046875-.011718.09375-.023437.140625-.035156.054687-.015625.105468-.03125.15625-.042969.050781-.015625.101562-.03125.152344-.042969.046874-.015624.097656-.027343.148437-.042968.046875-.015625.097656-.027344.148437-.042969.046876-.015625.097657-.027344.148438-.042969.054688-.015625.109375-.035156.164062-.050781.042969-.011719.085938-.027344.128907-.039063.058593-.019531.117187-.035156.171875-.054687.042968-.011719.085937-.027344.128906-.039063.0625-.019531.128906-.042968.191406-.0625.035156-.011718.070313-.023437.105469-.035156.101563-.03125.199219-.066406.300781-.101562l34.832032-11.863282 34.828124 11.863282c.101563.035156.203126.070312.304688.101562.027344.011719.054688.019532.085938.027344.066406.023438.136718.046875.207031.070312.039062.011719.078125.023438.117187.035157l.1875.058593c.039063.011719.078125.023438.121094.035157.058594.019531.117188.035156.175781.054687.042969.011719.089844.027344.132813.039063.054687.015625.105468.03125.160156.046875.050781.011718.097656.027344.144531.039062.050781.015625.101563.027344.152344.042969s.101563.027344.15625.042969c.046875.011718.09375.023437.140625.039062.050781.011719.101562.027344.15625.039063.050781.015625.101562.027343.152344.039062.050781.015625.101562.027344.148437.039063.039063.011718.074219.019531.113281.027344.230469.058593.464844.113281.699219.164062.019531.003906.042969.007812.066407.015625.066406.015625.136718.027344.203124.042969.035157.007812.066407.015625.097657.019531.0625.015625.121093.027344.183593.039063.039063.007812.082032.015624.125.023437.054688.011719.113282.023437.167969.035156.046875.007813.089844.015625.132813.023438.054687.011719.113281.023437.167968.03125.042969.007812.089844.015625.132813.023437.054687.011719.113281.023438.171875.03125.039062.007813.078125.015625.117188.019532.0625.011718.125.023437.183593.03125.039063.007812.074219.011718.113281.019531.0625.007812.125.019531.191407.027343.023437.003907.050781.007813.074219.011719.238281.035157.480468.070313.71875.101563.027343.003906.058593.007812.085937.007812.0625.007813.128906.015625.1875.023438.039063.003906.078125.011718.117187.015625.058594.003906.117188.011719.175782.019531.042968.003906.085937.007812.125.011719.058594.007812.113281.011719.171875.019531.046875.003906.089843.007812.132812.011719.054688.003906.109375.011719.167969.015625l.140625.011718c.050781.003907.105469.007813.160156.011719.046875.003907.09375.007813.140625.011719.054688.003906.109375.007812.164063.011719.046875.003906.089843.007812.132812.007812.058594.003907.109375.007813.164063.011719.058594.003906.113281.007812.167968.007812.042969.003907.085938.007813.132813.007813.074219.003906.152344.007813.230469.011719.03125 0 .058594.003906.085937.003906.09375.003906.191407.007812.285157.007812.035156.003907.070312.003907.105468.003907.066406.003906.132813.003906.199219.007812h.117187c.0625 0 .125.003907.1875.003907h.121094.1875.050782.046874.335938.039062c.125-.003907.25-.003907.375-.007813.027344-.003906.054688-.003906.078126-.003906.113281-.003907.222656-.007813.332031-.011719h.046875c.128906-.003906.253906-.011719.382812-.019531h.054688c.113281-.007813.226562-.015625.339844-.023438.019531 0 .039062 0 .058593-.003906.257813-.015625.515625-.035156.773438-.058594.015625-.003906.035156-.003906.050781-.007812.257812-.023438.515625-.050781.773438-.082031.015624 0 .03125-.003907.046874-.003907.257813-.03125.515626-.066406.773438-.105469.015625 0 .027344-.003906.042969-.003906.121093-.019531.246093-.039062.367187-.058594h.019532c.132812-.023437.265624-.046874.398437-.066406 0 0 .003906-.003906.003906-.003906.125-.019531.253907-.042969.378907-.066406.011718-.003906.023437-.003906.035156-.007813.257812-.050781.515625-.101562.773437-.15625.011719-.003906.023438-.003906.035157-.007812.257812-.054688.511718-.113281.761718-.175781.015625-.003907.03125-.007813.046875-.011719.253907-.058594.507813-.125.761719-.191407.007812-.003906.019531-.007812.03125-.011718.121094-.03125.242188-.066406.363281-.101563.003907 0 .011719-.003906.019531-.003906.125-.035156.253907-.074219.378907-.109375.007812-.003906.015625-.007812.027343-.007812.117188-.039063.238282-.074219.355469-.109376.011719-.003906.019531-.007812.03125-.011718.25-.078125.5-.160156.75-.246094.011719-.003906.023438-.007812.03125-.011719.246094-.082031.492188-.171875.734375-.261719.019532-.007812.039063-.011718.058594-.019531.238281-.089843.476562-.183593.714844-.277343.019531-.007813.035156-.015626.050781-.023438.109375-.042969.21875-.085938.328125-.132812.011719-.003907.023438-.007813.03125-.015626.121094-.050781.238281-.101562.359375-.152343.011719-.003907.023437-.007813.035156-.015625.105469-.046875.210938-.089844.316407-.136719.019531-.011719.039062-.019531.058593-.027344.113281-.050781.230469-.105469.34375-.160156.011719-.003906.019531-.007813.03125-.015625.105469-.046875.207031-.09375.308594-.144531.027344-.011719.050781-.023438.074219-.035157.222656-.105468.445312-.21875.667968-.332031.023438-.015625.050782-.027343.082032-.042969.101562-.054687.207031-.105468.308594-.164062.007812 0 .011718-.003906.019531-.007812.109375-.058594.21875-.117188.328125-.175782.023437-.015625.050781-.03125.078125-.046875.09375-.050781.183593-.101562.277343-.152343.015626-.011719.035157-.019532.050782-.03125.105468-.058594.210937-.121094.316406-.179688.03125-.015625.058594-.035156.085938-.050781.082031-.046875.164062-.097657.246093-.144531.03125-.019532.058594-.035157.085938-.050782.101562-.0625.203125-.125.304687-.1875.023438-.015625.050782-.03125.074219-.046875.082031-.050781.164063-.101562.242187-.152343.03125-.019532.0625-.039063.09375-.058594.101563-.066406.203126-.132813.300782-.195313.015625-.011719.03125-.019531.042968-.03125.09375-.058593.183594-.117187.273438-.179687.027344-.019532.054688-.035156.082031-.054688.09375-.0625.183594-.128906.277344-.191406.011719-.007812.019531-.015625.03125-.023438.097656-.066406.195313-.136718.292969-.207031.03125-.023437.066406-.046875.097656-.070312.074219-.054688.148438-.105469.21875-.160157.03125-.019531.058594-.042968.085938-.0625.09375-.070312.1875-.136718.277343-.207031.03125-.023437.066407-.050781.097657-.074219.070312-.054687.140624-.109374.210937-.164062.03125-.023438.058594-.046875.085937-.066406.09375-.074219.1875-.148438.277344-.21875.03125-.027344.058594-.050782.089844-.074219.066406-.054687.132812-.109375.199219-.160156.035156-.03125.066406-.058594.101562-.085938.089844-.074219.179688-.148437.269531-.226562.023438-.015625.042969-.035157.066407-.054688.074219-.0625.144531-.125.214843-.1875.035157-.027343.066407-.054687.101563-.082031.074219-.070312.152344-.136719.230469-.207031.023437-.019531.042968-.039063.066406-.058594.082031-.074219.164062-.148437.242188-.222656.03125-.027344.0625-.054688.09375-.085938.074218-.066406.144531-.132812.214843-.199219.019531-.019531.039063-.035156.0625-.054687.085938-.082031.171875-.164063.253907-.246094.035156-.03125.066406-.0625.097656-.09375.0625-.058593.121094-.121093.179687-.179687.03125-.027344.0625-.058594.089844-.089844.085937-.082031.167969-.167969.253906-.253906l.070313-.070313c.066406-.066406.128906-.136719.195312-.203125.027344-.027344.054688-.058594.085938-.089844.082031-.089843.167968-.175781.25-.265624.011718-.015626.027344-.03125.039062-.046876.074219-.078124.148438-.160156.21875-.238281.027344-.027343.050782-.054687.074219-.082031.085937-.09375.167969-.1875.253906-.285156l41.371094-47.214844 42.902344 11.957031c.761719.210938 1.515625.441407 2.261719.683594-2.363282 2.714844-3.796876 6.265625-3.796876 10.140625v5.816406c0 .203125-.140624.378906-.355468.453125-3.46875 1.152344-6.882813 2.566407-10.15625 4.203125-.207032.105469-.4375.082032-.582032-.0625l-4.113281-4.109375c-6.03125-6.03125-15.84375-6.03125-21.875 0l-12.371093 12.371094c-6.03125 6.03125-6.03125 15.847656 0 21.875l4.109374 4.113281c.144532.144532.171876.375.0625.585938-1.632812 3.265625-3.046874 6.683594-4.203124 10.152344-.070313.21875-.25.355468-.453126.355468h-5.816406c-8.527344 0-15.46875 6.941406-15.46875 15.46875v17.496094c0 8.53125 6.941406 15.46875 15.46875 15.46875h5.816406c.203126 0 .382813.140625.453126.359375 1.15625 3.476563 2.574218 6.894531 4.203124 10.152344.105469.210937.082032.441406-.0625.585937l-4.113281 4.113282c-6.027343 6.03125-6.027343 15.84375 0 21.875l3.59375 3.589843h-305.082031c-2.953125 0-5.734375-1.292969-7.640625-3.546875-1.902344-2.257812-2.707031-5.21875-2.210937-8.128906l7.292968-42.699219c.699219-4.082031-2.046875-7.957031-6.128906-8.65625-4.082031-.695312-7.960938 2.046875-8.65625 6.128907l-7.292969 42.703124c-1.246093 7.273438.773438 14.683594 5.53125 20.324219 4.761719 5.640625 11.722657 8.875 19.105469 8.875h350.949219v.078125c0 8.53125 6.941406 15.46875 15.46875 15.46875h17.496093c8.53125 0 15.46875-6.9375 15.46875-15.46875v-5.816406c0-.203125.140626-.378906.355469-.453125 3.472657-1.15625 6.890625-2.570313 10.15625-4.203125.214844-.109375.441407-.082031.585938.0625l4.109375 4.109375c2.921875 2.921875 6.804687 4.53125 10.9375 4.53125 4.132812 0 8.015625-1.609375 10.941406-4.53125l12.367188-12.371094c2.921874-2.921875 4.53125-6.804687 4.53125-10.9375 0-4.132812-1.605469-8.015625-4.527344-10.9375l-4.113282-4.113281c-.144531-.144531-.167968-.371094-.0625-.582031 1.636719-3.273438 3.050782-6.6875 4.203126-10.15625.074218-.214844.253906-.355469.457031-.355469h5.816406c8.527344 0 15.46875-6.941406 15.46875-15.46875v-17.503906c0-8.527344-6.941406-15.46875-15.46875-15.46875zm-255.402344-289.628906c31.589844 0 63.285157 5.5 94.320313 16.359374l-1.777344 6.609376c-.660156 2.457031-2.25 4.488281-4.480469 5.71875-2.195312 1.214843-4.722656 1.480468-7.109375.746093-53.199218-16.339843-107.144531-16.5-160.359375-.46875-.515625.15625-1.03125.3125-1.550781.472657-2.382812.730468-4.910156.464843-7.109375-.75-.484375-.269532-.941406-.578126-1.363281-.917969-.121094-.097657-.242188-.199219-.355469-.300781-.117187-.105469-.230469-.210938-.339844-.320313-1.152343-1.140625-1.984375-2.566406-2.417969-4.179687l-.230468-.859376-.566406-2.105468c-.003907-.007813-.003907-.015625-.007813-.023438l-.972656-3.621094c31.035156-10.859374 62.730469-16.359374 94.320312-16.359374zm-56.519531 127.722656c-15.859375-13.660156-25.230469-34.125-25.703125-56.152344-.085937-4.074219-3.417969-7.335938-7.496094-7.335938h-6.144531c-4.820312 0-8.742188-3.921874-8.742188-8.742187v-18c0-1.238281.269532-2.441406.757813-3.53125.015625.023437.03125.046875.046875.074219.027344.039062.054688.082031.085938.121094.03125.050781.0625.101562.097656.148437s.066406.097656.101562.144531c.039063.058594.078125.113282.117188.171875.050781.066407.101562.136719.152344.207031.027343.042969.058593.085938.089843.125.035157.050782.070313.097657.105469.144532.03125.042968.066406.085937.097656.128906.035156.046875.070313.09375.109375.140625.03125.042969.0625.082031.09375.125.039063.046875.074219.097656.113281.144531.03125.039063.0625.078125.09375.121094.042969.050781.085938.105469.128907.15625.03125.039062.0625.078125.09375.113281.0625.078125.125.152344.191406.230469.03125.035156.058594.070312.089844.105469.042969.050781.085937.101562.128906.148437.035156.039063.066406.078125.101563.117188.039062.042968.078124.085937.117187.128906.035156.042969.074219.082031.109375.125.039062.042969.082031.085938.121094.132812.035156.035157.066406.074219.101562.109376.054688.058593.105469.113281.160156.167968.023438.023438.046876.050782.070313.074219.074219.074219.144531.152344.21875.226563.039063.039062.078125.078124.117187.117187.039063.039063.078126.078125.121094.117187.039063.042969.082032.082032.121094.121094.039062.035156.078125.074219.117188.113282.042968.039062.082031.078124.125.117187.039062.039063.082031.078125.121093.113281.039063.039063.082031.078125.121094.113282.042969.042968.089844.082031.136719.125.074218.066406.148437.136718.226562.203124.039063.035157.078125.066407.113282.101563.050781.042969.097656.082031.144531.125.039062.027344.074219.0625.109375.09375.046875.039063.09375.078125.140625.117187.039062.03125.082031.0625.121093.097657.046876.039062.09375.078125.140626.117187.035156.027344.074218.058594.109374.089844.050782.039062.101563.078125.15625.121094.03125.027344.066407.050781.101563.078125.101563.082031.203125.160156.304687.234375.03125.023437.0625.050781.09375.074218.054688.039063.109376.078126.164063.121094.035156.023438.070313.050782.105469.074219.054687.042969.109375.082031.164062.121094.035156.027343.070313.050781.105469.074219.058594.042968.113281.082031.171875.121093.03125.019531.0625.042969.09375.066407.0625.039062.125.082031.183594.125.019531.011718.039062.023437.054687.035156.15625.101562.308594.203125.464844.300781 0 .003906 0 .003906.003906.003906.066407.042969.132813.085938.199219.128907.03125.015624.058594.035156.085938.050781.066406.042969.128906.082031.195312.121093.027344.015626.058594.03125.085938.050782.066406.039062.136718.082031.203124.121094.023438.011718.046876.027343.070313.039062.164063.097656.324219.191406.492187.28125.113282.0625.226563.125.339844.183594 0 .003906.003906.003906.003906.003906.109376.058594.21875.117188.328126.171875.007812.003906.019531.007813.027343.011719.105469.058594.214844.113281.328125.164062 0 .003906.003906.003906.007813.007813.226562.109375.457031.21875.683593.324219.011719.003906.023438.007812.035157.015624.097656.042969.199219.089844.296875.132813.019531.007813.039062.015625.058594.023437.097656.042969.195312.085938.296874.125.011719.007813.027344.015626.042969.019532.21875.09375.445313.183594.667969.269531.027344.011719.058594.019531.085938.03125.082031.03125.167968.0625.25.09375.03125.011719.0625.023437.09375.035156.085937.027344.167968.058594.253906.089844.027344.007813.058594.019531.085937.027344.109375.039062.21875.074219.328125.113281.023438.007812.050782.015625.078125.023438.082031.027343.164063.050781.246094.078124.042969.015626.085937.027344.128906.042969.070313.019531.140625.039063.207031.0625.042969.011719.089844.023438.132813.035157.074219.023437.148437.046874.226563.066406.035156.007812.070312.019531.105468.03125.105469.027344.214844.054687.320313.085937.042969.007813.082031.019531.121093.03125.070313.015625.136719.03125.207032.050781.050781.011719.101562.023438.152344.035157l.1875.046875c.050781.011718.101562.019531.152343.035156.058594.011719.121094.023438.179688.039062.054687.011719.105469.023438.15625.03125.101562.023438.203125.042969.304687.0625.054688.007813.105469.019532.160156.03125.058594.007813.117188.019532.175782.03125.054687.011719.113281.019532.171875.03125.054687.007813.109375.019532.164062.027344.058594.007813.113281.015625.167969.027344.0625.007812.121094.019531.183594.027344.074218.011718.152344.023437.226562.03125.078125.011718.152344.023437.230469.03125.058594.007812.117187.015625.179687.023437.050782.003907.105469.011719.15625.019531.0625.007813.125.011719.1875.019532.046876.003906.09375.011718.144532.015625.0625.007812.128906.011719.191406.019531.046875.003906.097656.007812.148438.011719.117187.011719.234374.019531.351562.027343.042969.003907.085938.007813.132812.011719.0625.003907.128907.007813.191407.011719.050781 0 .097656.003906.144531.007812.066406.003907.132812.003907.195312.007813.046876.003906.089844.003906.136719.003906.066407.003907.132813.007813.199219.007813.046875 0 .09375.003906.140625.003906.121094.003906.246094.003906.367187.003906.042969 0 .082032.003906.125.003906h.058594c.777344 0 1.554688-.039062 2.332032-.117187h.003906c.292968-.027344.589844-.0625.886718-.101563.007813-.003906.019532-.003906.027344-.003906.09375-.015625.191406-.027344.285156-.042968.097657-.015626.195313-.03125.296876-.046876h.011718c.089844-.015624.179688-.03125.273438-.046874.011718 0 .023437-.003907.035156-.003907.089844-.019531.183594-.035156.273438-.050781.003906-.003906.007812-.003906.011718-.003906.09375-.015625.1875-.035156.285156-.054688.011719-.003906.023438-.003906.035157-.007812.082031-.015625.164062-.035156.246093-.050782.015626-.003906.035157-.007812.050782-.011718.1875-.039063.371094-.082032.558594-.125.015624-.003906.03125-.007813.046874-.011719.074219-.019531.152344-.039063.230469-.058594.019531-.003906.039063-.007812.0625-.015625.179688-.046875.363281-.09375.546875-.144531.019532-.007813.042969-.015625.066406-.019531.066407-.019532.136719-.039063.207032-.058594.023437-.007812.050781-.015625.074218-.023438.089844-.023437.179688-.050781.269532-.082031 43.453125-13.347656 87.429687-15.273437 131.03125-5.785156.832031.179687 1.667968.367187 2.5.554687.394531.089844.789062.179688 1.183594.273438.632812.148438 1.269531.296875 1.902343.449219.726563.171875 1.453125.351562 2.179688.53125.472656.117187.949219.238281 1.425781.359375.792969.203125 1.585938.410156 2.378906.617187 1.710938.453125 3.421875.925781 5.132813 1.410157 1.789062.511718 3.578125 1.042968 5.363281 1.589843 6.308594 1.941407 12.976562 1.246094 18.769531-1.957031.101563-.054688.203125-.113281.300781-.167969.035157-.019531.066407-.039062.101563-.058593.066406-.039063.136719-.078126.203125-.121094.035156-.019532.070312-.039063.105469-.0625.066406-.035156.128906-.074219.195312-.113282.035157-.023437.070313-.046874.109375-.070312.066406-.039062.136719-.082031.203125-.125.03125-.019531.058594-.039062.085938-.054688.195312-.125.390625-.25.582031-.378906.023438-.019531.050781-.035156.078125-.054687.066406-.046875.136719-.09375.203125-.140625.03125-.023438.0625-.042969.09375-.066406.066406-.046876.128906-.089844.195312-.136719.03125-.023438.058594-.042969.089844-.066407.066406-.046874.132813-.097656.199219-.144531.027344-.019531.054687-.039062.082031-.058593.089844-.070313.183594-.136719.273438-.207032.003906-.003906.007812-.007812.007812-.007812.089844-.070313.175782-.136719.261719-.203125.023437-.019531.050781-.042969.074219-.0625.066406-.050781.128906-.101563.191406-.152344.03125-.023437.058594-.050781.089844-.074219.058594-.046875.117187-.097656.175781-.148437.03125-.023438.0625-.046875.089844-.074219.0625-.050781.121093-.101562.179687-.152344.027344-.023437.054688-.046875.082032-.070312.171874-.148438.339843-.300782.503906-.453125.027344-.023438.050781-.046875.078125-.070313.058593-.054687.113281-.105468.171875-.160156.027344-.027344.058594-.054688.085937-.082031.054688-.054688.109375-.105469.160157-.15625.03125-.027344.058593-.054688.085937-.085938.058594-.054687.113281-.113281.171875-.167969.023438-.023437.046875-.046874.066406-.070312.082032-.078125.160156-.160156.238282-.242188.003906-.003906.007812-.007812.011718-.011718.074219-.078125.148438-.152344.21875-.230469.023438-.027344.050782-.054687.074219-.078125.050781-.058594.105469-.117188.15625-.175781.027344-.027344.050781-.054688.078125-.082031.050781-.058594.101562-.117188.152344-.171876.023437-.03125.050781-.058593.074218-.085937.054688-.0625.109376-.128906.164063-.191406.019531-.019531.039063-.042969.058594-.066407.070312-.085937.144531-.171874.214843-.257812.007813-.011719.019532-.023438.027344-.03125.0625-.078125.125-.152344.1875-.230469.019532-.027343.042969-.054687.066406-.082031.046876-.0625.097657-.125.144532-.1875.023437-.03125.042968-.058594.066406-.085938.046875-.0625.097656-.125.144531-.1875.023438-.03125.042969-.058593.066407-.089843.050781-.066407.101562-.136719.152343-.207031.015625-.019532.03125-.042969.046875-.0625.066406-.089844.132813-.183594.199219-.277344.007813-.011719.015625-.023438.023437-.035156.054688-.078126.113282-.160157.167969-.242188.019531-.03125.039063-.058594.054688-.085938.046875-.0625.089843-.128906.132812-.195312.011719-.015625.023438-.03125.03125-.046875.488281 1.09375.757813 2.292969.757813 3.53125v18c0 4.820313-3.921875 8.742187-8.742188 8.742187h-6.144531c-4.078125 0-7.410156 3.261719-7.496094 7.339844-.472656 22.023438-9.84375 42.488282-25.703125 56.148438-4.335937 3.730468-8.851562 6.988281-13.535156 9.765625-.117188.0625-.238281.125-.359375.195312-12.773437 7.484375-26.84375 11.429688-41.832031 11.742188-.050782 0-.101563 0-.148438 0-.214844.003906-.429687.007812-.644531.011719-.214844-.003907-.429687-.007813-.644531-.011719-.050782 0-.101563 0-.148438 0-14.992187-.3125-29.0625-4.257813-41.832031-11.742188-.121094-.070312-.242187-.132812-.363281-.199219-4.679688-2.777343-9.191406-6.03125-13.527344-9.761718zm16.851562 125.390625c-6.277343 2.136719-13.152343.296875-17.523437-4.6875l-36.625-41.796875 30.765625-8.578125 48.886719 46.375zm-6.3125-59.546875c4.390626-5.667969 7.066407-12.972656 7.066407-20.070313v-17.117187c11.550781 4.960937 23.886719 7.648437 36.914062 8.019531h.003907c.191406.003906.378906.011719.570312.015625h.089844c.171875.003906.339844.007812.507812.011719h.128906c.203126.003906.410157.007812.617188.011719h.167969c.207031-.003907.410156-.007813.617187-.011719h.125c.171875-.003907.339844-.007813.507813-.011719h.09375c.1875-.003906.378906-.011719.570312-.015625 13.027344-.371094 25.363281-3.058594 36.917969-8.019531v17.117187c0 7.097657 2.671875 14.402344 7.0625 20.070313l-45.980469 43.621094zm103.171876 54.859375c-4.367188 4.984375-11.246094 6.828125-17.523438 4.6875l-25.503906-8.6875 48.890625-46.375 30.761719 8.578125zm198.675781 74.171875c0 .257812-.207031.46875-.46875.46875h-5.816407c-6.664062 0-12.566406 4.265625-14.683593 10.617187-.929688 2.792969-2.070313 5.546875-3.390625 8.179688-2.996094 5.992187-1.84375 13.1875 2.871094 17.902343l4.113281 4.113282c.039062.039062.136719.136718.136719.332031s-.097657.292969-.136719.332031l-12.371094 12.371094c-.035156.035156-.136719.140625-.332031.140625-.195313 0-.292969-.101563-.332032-.140625l-4.109374-4.109375c-4.714844-4.71875-11.914063-5.871094-17.902344-2.875-2.632813 1.320313-5.386719 2.457031-8.183594 3.390625-6.351562 2.113281-10.617188 8.015625-10.617188 14.683594v5.816406c0 .257812-.210937.46875-.46875.46875h-17.496093c-.261719 0-.46875-.207031-.46875-.46875v-5.816406c0-6.667969-4.269531-12.570313-10.617188-14.683594-2.796875-.929688-5.550781-2.070312-8.183593-3.386719-2.222657-1.113281-4.609376-1.652343-6.976563-1.652343-4.011719 0-7.960937 1.558593-10.925781 4.523437l-4.113282 4.113281c-.183593.179688-.480468.179688-.660156 0l-12.371094-12.375c-.183593-.183594-.183593-.480468-.003906-.660156l4.113282-4.113281c4.714843-4.714844 5.871093-11.910157 2.871093-17.90625-1.3125-2.625-2.457031-5.378907-3.386719-8.179688-2.117187-6.347656-8.019531-10.617187-14.6875-10.617187h-5.816406c-.257812 0-.46875-.210938-.46875-.46875v-17.5c0-.257813.210938-.46875.46875-.46875h5.816406c6.667969 0 12.570313-4.265625 14.683594-10.613282.933594-2.796874 2.074219-5.550781 3.390625-8.183593 3-5.992188 1.84375-13.1875-2.871093-17.902344l-4.109376-4.113281c-.183593-.183594-.183593-.480469-.003906-.664063l12.375-12.371093c.179688-.183594.476563-.183594.660156 0l4.113282 4.109374c4.71875 4.71875 11.910156 5.871094 17.902344 2.875 2.636718-1.320312 5.386718-2.460937 8.183593-3.390624 6.351563-2.113282 10.617188-8.015626 10.617188-14.683594v-5.816406c0-.257813.207031-.46875.46875-.46875h8.570312.191407 8.734374c.257813 0 .46875.207031.46875.46875v5.816406c0 6.667968 4.269532 12.570312 10.617188 14.683594 2.792969.929687 5.546875 2.070312 8.183594 3.386718 5.992187 3 13.1875 1.84375 17.902344-2.871094l4.113281-4.113281c.035156-.035156.136719-.132812.328125-.132812.195312 0 .296875.097656.332031.136719l12.371094 12.371093c.039062.039063.136719.136719.136719.332031 0 .195313-.097657.292969-.136719.332032l-4.109375 4.113281c-4.714844 4.714844-5.871094 11.910156-2.875 17.898437 1.320312 2.636719 2.460937 5.390626 3.390625 8.1875 2.117187 6.347657 8.019531 10.613282 14.6875 10.613282h5.816406c.257813 0 .46875.210937.46875.46875v17.5zm0 0" />
  <path fill="#00abe1"
    d="m400.164062 380.019531c-20.144531 0-36.535156 16.394531-36.535156 36.539063 0 20.148437 16.390625 36.539062 36.535156 36.539062 20.148438 0 36.539063-16.390625 36.539063-36.539062 0-20.144532-16.390625-36.539063-36.539063-36.539063zm0 58.078125c-11.875 0-21.535156-9.664062-21.535156-21.539062s9.660156-21.539063 21.535156-21.539063c11.878907 0 21.539063 9.664063 21.539063 21.539063s-9.660156 21.539062-21.539063 21.539062zm0 0" />
  <path fill="#00abe1"
    d="m178.898438 442.617188c6.496093 0 11.78125-5.285157 11.78125-11.78125v-19.691407c0-6.496093-5.285157-11.78125-11.78125-11.78125h-57.191407c-6.496093 0-11.78125 5.285157-11.78125 11.78125v19.691407c0 6.496093 5.285157 11.78125 11.78125 11.78125zm-53.972657-28.253907h50.753907v13.253907h-50.753907zm0 0" />
</svg>